<svg xmlns="http://www.w3.org/2000/svg" width="16.36" height="16.356" viewBox="0 0 16.36 16.356"><defs><style>.a{fill:#111;}</style></defs><g transform="translate(-11.2 -10.3)"><g transform="translate(11.2 10.3)"><path class="a" d="M14.023,10.729a4.2,4.2,0,0,0-2.394,2.391A5.981,5.981,0,0,0,11.25,15.1c-.04.871-.05,1.15-.05,3.372s.01,2.5.05,3.372a6.067,6.067,0,0,0,.379,1.985,4.188,4.188,0,0,0,2.394,2.394,5.981,5.981,0,0,0,1.985.379c.871.04,1.151.05,3.372.05s2.5-.01,3.372-.05a6.067,6.067,0,0,0,1.985-.379,4.188,4.188,0,0,0,2.394-2.394,5.981,5.981,0,0,0,.379-1.985c.04-.871.05-1.15.05-3.372s-.01-2.5-.05-3.372a6.067,6.067,0,0,0-.379-1.985,4.177,4.177,0,0,0-2.391-2.391,5.981,5.981,0,0,0-1.985-.379c-.871-.04-1.151-.05-3.372-.05s-2.5.01-3.372.05A5.9,5.9,0,0,0,14.023,10.729Zm8.662,1.091a4.506,4.506,0,0,1,1.52.283,2.706,2.706,0,0,1,1.553,1.553,4.506,4.506,0,0,1,.283,1.52c.04.861.047,1.121.047,3.305s-.01,2.444-.047,3.305a4.506,4.506,0,0,1-.283,1.52A2.706,2.706,0,0,1,24.2,24.857a4.506,4.506,0,0,1-1.52.283c-.861.04-1.121.047-3.305.047s-2.444-.01-3.305-.047a4.506,4.506,0,0,1-1.52-.283A2.706,2.706,0,0,1,13,23.3a4.506,4.506,0,0,1-.283-1.52c-.04-.861-.047-1.121-.047-3.305s.01-2.444.047-3.305A4.506,4.506,0,0,1,13,13.655,2.706,2.706,0,0,1,14.555,12.1a4.506,4.506,0,0,1,1.52-.283c.861-.04,1.121-.047,3.305-.047S21.824,11.78,22.685,11.82Z" transform="translate(-11.2 -10.3)"/><path class="a" d="M130.9,134.2a4.2,4.2,0,1,0,4.2-4.2A4.2,4.2,0,0,0,130.9,134.2Zm6.926,0a2.727,2.727,0,1,1-2.727-2.727A2.726,2.726,0,0,1,137.826,134.2Z" transform="translate(-126.92 -126.02)"/><ellipse class="a" cx="0.981" cy="0.981" rx="0.981" ry="0.981" transform="translate(11.568 2.833)"/></g></g></svg>